<svg width="101" height="129" viewBox="0 0 101 129" fill="none" xmlns="http://www.w3.org/2000/svg">
<ellipse cx="50.4333" cy="77.1149" rx="50.4333" ry="51.1149" fill="#16A3C2"/>
<path d="M89.3977 99.0952C87.7366 101.187 85.9832 103.171 84.1375 105.048C82.2918 106.893 80.2153 108.493 77.9082 109.846C75.6318 111.2 73.0325 112.246 70.1101 112.984C67.2185 113.722 63.8809 114.03 60.0972 113.907C57.1133 113.815 54.0064 113.661 50.7764 113.446C47.5772 113.261 44.4241 113.061 41.3171 112.846C38.2102 112.63 35.2571 112.446 32.4578 112.292C29.6584 112.138 27.1821 112.061 25.0288 112.061C23.8599 112.061 22.7986 112.077 21.845 112.107C20.9221 112.169 20.1531 112.277 19.5378 112.43C20.5222 111.415 21.7373 109.954 23.1831 108.047C24.6289 106.109 26.2131 103.909 27.9358 101.448C29.6584 98.9568 31.4734 96.2805 33.3806 93.4197C35.2878 90.5588 37.1951 87.6826 39.1023 84.791C41.0403 81.8994 42.9168 79.0847 44.7317 76.3469C46.5466 73.6091 48.2385 71.1174 49.8074 68.8718C52.7913 64.5344 55.4675 60.8276 57.8362 57.7515C60.2048 54.6445 62.312 52.0759 64.1577 50.0456C62.8657 50.4456 61.5584 50.7378 60.2356 50.9224C58.9128 51.0762 57.7131 51.1838 56.6365 51.2454C55.3752 51.3376 54.1602 51.353 52.9912 51.2915C49.6382 51.0762 46.3467 50.7532 43.1167 50.3225C39.8867 49.8918 36.7952 49.6765 33.842 49.6765C31.3503 49.6765 29.0125 49.938 26.8284 50.4609C24.675 50.9839 22.7217 52.0144 20.9683 53.5525C22.9985 51.1223 24.8904 49.0459 26.6438 47.3232C28.3972 45.5698 30.2122 44.1394 32.0886 43.032C33.9959 41.8938 36.0723 41.0632 38.3179 40.5403C40.5635 40.0173 43.1936 39.7559 46.2083 39.7559C48.3308 39.7559 50.3918 39.8789 52.3914 40.125C54.4216 40.3403 56.4211 40.6018 58.3899 40.9094C60.3894 41.1863 62.3582 41.4477 64.2961 41.6938C66.2341 41.9092 68.2029 42.0168 70.2024 42.0168C71.8328 42.0168 73.4324 41.9399 75.0012 41.7861C76.6008 41.6016 78.1235 41.2939 79.5693 40.8633C77.939 41.7861 76.4009 42.9705 74.9551 44.4163C73.54 45.8313 72.2942 47.231 71.2175 48.6152C69.9563 50.2148 68.772 51.8606 67.6646 53.5525C66.8648 54.8752 65.7112 56.7209 64.2039 59.0896C62.6965 61.4275 60.9585 64.073 58.9897 67.0261C57.0518 69.9485 54.9446 73.0708 52.6682 76.3931C50.3918 79.6846 48.0693 82.9299 45.7007 86.1291C43.3628 89.2976 41.0403 92.2969 38.7332 95.127C36.4568 97.957 34.3188 100.387 32.3193 102.417H32.7808C36.0107 102.417 39.1946 102.525 42.3323 102.74C45.5007 102.956 48.6384 103.202 51.7454 103.479C54.8523 103.725 57.9285 103.956 60.9739 104.171C64.0501 104.386 67.1262 104.494 70.2024 104.494C72.6018 104.494 74.7705 104.417 76.7085 104.263C78.6773 104.079 80.4461 103.786 82.0149 103.386C83.5837 102.956 84.968 102.402 86.1677 101.725C87.3982 101.018 88.4749 100.141 89.3977 99.0952Z" fill="white"/>
</svg>
