<svg width="619" height="88" viewBox="0 0 619 88" fill="none" xmlns="http://www.w3.org/2000/svg">
<path d="M63.2109 57.2969C63.2109 60.4375 62.6719 63.3438 61.5938 66.0156C60.5391 68.6875 59.1094 71.125 57.3047 73.3281C55.5 75.5078 53.4141 77.4414 51.0469 79.1289C48.6797 80.8164 46.1953 82.2344 43.5938 83.3828C40.9922 84.5312 38.3438 85.3984 35.6484 85.9844C32.9766 86.5703 30.4336 86.8633 28.0195 86.8633C24.457 86.8633 21.1992 86.2656 18.2461 85.0703C15.3164 83.8984 12.7969 82.2578 10.6875 80.1484C8.57812 78.0391 6.9375 75.5312 5.76562 72.625C4.61719 69.7188 4.04297 66.543 4.04297 63.0977C4.04297 60.0742 4.57031 57.2266 5.625 54.5547C6.70312 51.8594 8.14453 49.3984 9.94922 47.1719C11.7773 44.9219 13.8867 42.9062 16.2773 41.125C18.6914 39.3438 21.2344 37.8438 23.9062 36.625C26.6016 35.3828 29.3438 34.4336 32.1328 33.7773C34.9453 33.1211 37.6523 32.793 40.2539 32.793C42.5977 32.793 44.7891 33.0977 46.8281 33.707C48.8672 34.293 50.7305 35.1367 52.418 36.2383C54.1289 37.3164 55.6523 38.6172 56.9883 40.1406C58.3242 41.6406 59.4492 43.3047 60.3633 45.1328C61.3008 46.9375 62.0039 48.8711 62.4727 50.9336C62.9648 52.9961 63.2109 55.1172 63.2109 57.2969ZM31.5352 37.4688C28.4883 37.4688 25.8281 38.0312 23.5547 39.1562C21.3047 40.2578 19.4297 41.7578 17.9297 43.6562C16.4297 45.5547 15.3047 47.7695 14.5547 50.3008C13.8281 52.8086 13.4648 55.4688 13.4648 58.2812C13.4648 61.8203 14.0859 65.0664 15.3281 68.0195C16.5703 70.9727 18.2695 73.5156 20.4258 75.6484C22.6055 77.7812 25.1719 79.4453 28.125 80.6406C31.0781 81.8125 34.2773 82.3984 37.7227 82.3984C39.5977 82.3984 41.2969 82.0938 42.8203 81.4844C44.3438 80.875 45.7031 80.0547 46.8984 79.0234C48.0938 77.9688 49.125 76.75 49.9922 75.3672C50.8828 73.9609 51.6094 72.4727 52.1719 70.9023C52.7344 69.332 53.1562 67.7266 53.4375 66.0859C53.7188 64.4219 53.8594 62.8047 53.8594 61.2344C53.8594 57.9297 53.3203 54.8359 52.2422 51.9531C51.1641 49.0703 49.6406 46.5625 47.6719 44.4297C45.7031 42.2734 43.3477 40.5742 40.6055 39.332C37.8633 38.0898 34.8398 37.4688 31.5352 37.4688ZM113.379 64.0469C113.379 66.1094 112.98 68.0664 112.184 69.918C111.387 71.7695 110.32 73.4922 108.984 75.0859C107.648 76.6797 106.102 78.1328 104.344 79.4453C102.609 80.7578 100.781 81.8945 98.8594 82.8555C96.9609 83.8164 95.0391 84.5781 93.0938 85.1406C91.1484 85.7266 89.3203 86.0898 87.6094 86.2305C86.8594 86.2773 85.9688 86.2656 84.9375 86.1953C83.9062 86.125 82.8398 85.9375 81.7383 85.6328C80.6602 85.3516 79.582 84.918 78.5039 84.332C77.4492 83.7227 76.5 82.9141 75.6562 81.9062C74.8125 80.8984 74.1328 79.6562 73.6172 78.1797C73.1016 76.6797 72.8438 74.8984 72.8438 72.8359C72.8438 71.2891 72.8555 69.4844 72.8789 67.4219C72.9258 65.3594 72.9727 63.1562 73.0195 60.8125C73.0664 58.4453 73.1133 56.0078 73.1602 53.5C73.2305 50.9688 73.3008 48.4727 73.3711 46.0117C73.4414 43.5508 73.5 41.1836 73.5469 38.9102C73.6172 36.6133 73.6641 34.5273 73.6875 32.6523C73.7344 30.7773 73.7695 29.1602 73.793 27.8008C73.8164 26.4414 73.8164 25.4688 73.793 24.8828C73.7227 24.0391 73.4766 23.3242 73.0547 22.7383C72.7031 22.2461 72.1641 21.8594 71.4375 21.5781C70.7344 21.2734 69.7383 21.2969 68.4492 21.6484C69.3398 21.1797 70.2422 20.6992 71.1562 20.207C72.0703 19.6914 72.9961 19.2344 73.9336 18.8359C74.8711 18.4141 75.8086 18.0742 76.7461 17.8164C77.6836 17.5352 78.6328 17.3945 79.5938 17.3945C80.0859 17.3945 80.5547 17.4414 81 17.5352C81.4688 17.6289 81.8672 17.8047 82.1953 18.0625C82.5469 18.2969 82.8281 18.6133 83.0391 19.0117C83.25 19.4102 83.3555 19.9023 83.3555 20.4883C83.3555 20.9102 83.3438 21.707 83.3203 22.8789C83.2969 24.0508 83.2617 25.5039 83.2148 27.2383C83.1914 28.9727 83.1445 30.918 83.0742 33.0742C83.0273 35.2305 82.9688 37.4922 82.8984 39.8594C82.8516 42.2031 82.793 44.6055 82.7227 47.0664C82.6758 49.5039 82.6172 51.8711 82.5469 54.168C83.7891 53.3242 85.043 52.5508 86.3086 51.8477C87.5742 51.1211 88.8633 50.5117 90.1758 50.0195C91.5117 49.5039 92.8594 49.1055 94.2188 48.8242C95.6016 48.5195 97.0195 48.3672 98.4727 48.3672C100.816 48.3672 102.914 48.8008 104.766 49.668C106.617 50.5352 108.176 51.6953 109.441 53.1484C110.73 54.6016 111.703 56.2773 112.359 58.1758C113.039 60.0508 113.379 62.0078 113.379 64.0469ZM82.2656 70.832C82.2656 72.0039 82.6172 73.2461 83.3203 74.5586C84.0469 75.8477 85.0078 77.043 86.2031 78.1445C87.3984 79.2461 88.7695 80.1602 90.3164 80.8867C91.8633 81.6133 93.4805 81.9766 95.168 81.9766C96.8086 81.9766 98.1914 81.5781 99.3164 80.7812C100.465 79.9844 101.391 78.9766 102.094 77.7578C102.797 76.5156 103.301 75.1562 103.605 73.6797C103.934 72.2031 104.098 70.7969 104.098 69.4609C104.098 67.3047 103.746 65.2656 103.043 63.3438C102.34 61.3984 101.344 59.6992 100.055 58.2461C98.7891 56.7695 97.2656 55.6094 95.4844 54.7656C93.7031 53.8984 91.7461 53.4648 89.6133 53.4648C88.7461 53.4648 87.9727 53.5234 87.293 53.6406C86.6133 53.7578 86.0859 53.9102 85.7109 54.0977C85.3594 54.2852 85.0195 54.6367 84.6914 55.1523C84.3867 55.668 84.0938 56.2891 83.8125 57.0156C83.5312 57.7422 83.2734 58.5508 83.0391 59.4414C82.8047 60.332 82.5938 61.2461 82.4062 62.1836C82.3594 64.2461 82.3242 66.0508 82.3008 67.5977C82.2773 69.1445 82.2656 70.2227 82.2656 70.832ZM163.512 64.5391C163.512 66.4844 163.242 68.2539 162.703 69.8477C162.164 71.4414 161.52 72.8359 160.77 74.0312C160.02 75.2266 159.258 76.2227 158.484 77.0195C157.711 77.8164 157.09 78.3906 156.621 78.7422C155.262 79.7266 153.867 80.6875 152.438 81.625C151.008 82.5625 149.531 83.4062 148.008 84.1562C146.508 84.8828 144.961 85.4688 143.367 85.9141C141.773 86.3594 140.133 86.582 138.445 86.582C135.938 86.582 133.559 86.2656 131.309 85.6328C129.082 85 127.125 84.0508 125.438 82.7852C123.773 81.5195 122.449 79.9258 121.465 78.0039C120.504 76.082 120.023 73.832 120.023 71.2539C120.023 68.9805 120.41 66.8477 121.184 64.8555C121.98 62.8398 123.035 60.9883 124.348 59.3008C125.684 57.6133 127.242 56.1016 129.023 54.7656C130.805 53.4062 132.691 52.2578 134.684 51.3203C136.676 50.3828 138.727 49.668 140.836 49.1758C142.945 48.6836 144.984 48.4375 146.953 48.4375C149.391 48.4375 151.617 48.8477 153.633 49.668C155.672 50.4648 157.418 51.5898 158.871 53.043C160.348 54.4727 161.484 56.1719 162.281 58.1406C163.102 60.1094 163.512 62.2422 163.512 64.5391ZM139.254 52.5156C138.059 52.5156 136.969 52.7383 135.984 53.1836C135 53.6055 134.121 54.1914 133.348 54.9414C132.598 55.668 131.941 56.5234 131.379 57.5078C130.84 58.4688 130.383 59.4883 130.008 60.5664C129.656 61.6211 129.387 62.6992 129.199 63.8008C129.035 64.8789 128.953 65.8984 128.953 66.8594C128.953 69.0391 129.352 71.0781 130.148 72.9766C130.945 74.8516 132.035 76.4922 133.418 77.8984C134.824 79.3047 136.453 80.4062 138.305 81.2031C140.18 82 142.172 82.3984 144.281 82.3984C145.594 82.3984 146.859 82.1523 148.078 81.6602C149.32 81.1445 150.41 80.3477 151.348 79.2695C152.309 78.168 153.07 76.7617 153.633 75.0508C154.219 73.3164 154.512 71.2305 154.512 68.793C154.512 66.6602 154.113 64.6094 153.316 62.6406C152.52 60.6719 151.43 58.9375 150.047 57.4375C148.664 55.9375 147.047 54.7422 145.195 53.8516C143.344 52.9609 141.363 52.5156 139.254 52.5156ZM222.363 80.1133C219.199 82.2695 216.504 83.8164 214.277 84.7539C212.051 85.6914 210.164 86.1602 208.617 86.1602C207.984 86.1602 207.328 86.0547 206.648 85.8438C205.992 85.6562 205.359 85.3281 204.75 84.8594C204.141 84.3672 203.578 83.7227 203.062 82.9258C202.57 82.1055 202.184 81.0742 201.902 79.832C200.754 80.6758 199.477 81.5078 198.07 82.3281C196.688 83.1484 195.258 83.8867 193.781 84.543C192.305 85.1992 190.816 85.7266 189.316 86.125C187.84 86.5234 186.422 86.7227 185.062 86.7227C182.766 86.7227 180.703 86.2539 178.875 85.3164C177.047 84.4023 175.488 83.1836 174.199 81.6602C172.934 80.1367 171.949 78.4023 171.246 76.457C170.566 74.5117 170.227 72.5078 170.227 70.4453C170.227 68.1484 170.578 66.0977 171.281 64.293C172.008 62.4648 172.98 60.8477 174.199 59.4414C175.441 58.0117 176.871 56.7578 178.488 55.6797C180.105 54.5781 181.828 53.6172 183.656 52.7969C185.484 51.9766 187.359 51.2617 189.281 50.6523C191.203 50.0195 193.066 49.4453 194.871 48.9297C195.035 48.9062 195.234 48.8828 195.469 48.8594C195.656 48.8359 195.879 48.8242 196.137 48.8242C196.418 48.8008 196.734 48.7891 197.086 48.7891C197.742 48.7891 198.48 48.8359 199.301 48.9297C200.145 49 201.035 49.1406 201.973 49.3516L202.711 27.168C202.664 25.8789 202.43 24.7773 202.008 23.8633C201.82 23.4883 201.586 23.1367 201.305 22.8086C201.023 22.457 200.672 22.1875 200.25 22C199.852 21.8125 199.359 21.707 198.773 21.6836C198.211 21.6602 197.555 21.7656 196.805 22C197.719 21.5781 198.691 21.1094 199.723 20.5938C200.754 20.0547 201.773 19.5625 202.781 19.1172C203.812 18.6484 204.809 18.2617 205.77 17.957C206.754 17.6289 207.656 17.4648 208.477 17.4648C209.367 17.4648 210.105 17.6992 210.691 18.168C211.301 18.6367 211.641 19.3633 211.711 20.3477C211.781 21.0039 211.816 21.9062 211.816 23.0547C211.84 24.2031 211.852 25.5742 211.852 27.168C211.852 29.0664 211.828 31.1875 211.781 33.5312C211.758 35.8516 211.723 38.2773 211.676 40.8086C211.629 43.3398 211.57 45.918 211.5 48.543C211.43 51.168 211.371 53.7344 211.324 56.2422C211.277 58.75 211.23 61.1406 211.184 63.4141C211.16 65.6641 211.148 67.6797 211.148 69.4609C211.148 70.8672 211.23 72.25 211.395 73.6094C211.582 74.9688 211.934 76.1875 212.449 77.2656C212.988 78.3438 213.727 79.2227 214.664 79.9023C215.625 80.5586 216.891 80.8867 218.461 80.8867C219.047 80.8867 219.656 80.8281 220.289 80.7109C220.945 80.5938 221.637 80.3945 222.363 80.1133ZM201.762 57.0508C200.941 56.3477 200.062 55.7617 199.125 55.293C198.188 54.8242 197.215 54.4492 196.207 54.168C195.223 53.8633 194.227 53.6523 193.219 53.5352C192.234 53.3945 191.273 53.3242 190.336 53.3242C188.297 53.3242 186.551 53.6289 185.098 54.2383C183.668 54.8477 182.496 55.7148 181.582 56.8398C180.668 57.9648 180 59.3125 179.578 60.8828C179.156 62.4531 178.945 64.1992 178.945 66.1211C178.945 68.1836 179.262 70.1406 179.895 71.9922C180.551 73.8203 181.465 75.4375 182.637 76.8438C183.809 78.2266 185.227 79.3281 186.891 80.1484C188.578 80.9453 190.441 81.3438 192.48 81.3438C193.934 81.3438 195.176 81.168 196.207 80.8164C197.238 80.4414 198.094 79.9375 198.773 79.3047C199.477 78.6484 200.039 77.8633 200.461 76.9492C200.883 76.0352 201.223 75.0273 201.48 73.9258C201.48 73.0117 201.48 71.9453 201.48 70.7266C201.504 69.4844 201.527 68.1484 201.551 66.7188C201.598 65.2656 201.633 63.7305 201.656 62.1133C201.68 60.4727 201.715 58.7852 201.762 57.0508ZM259.242 63.4844C259.031 63.4844 258.738 63.6367 258.363 63.9414C258.012 64.2227 257.637 64.5625 257.238 64.9609C256.863 65.3359 256.5 65.7109 256.148 66.0859C255.797 66.4375 255.551 66.6719 255.41 66.7891C255.246 66.9062 254.988 67.1406 254.637 67.4922C254.309 67.8438 253.945 68.207 253.547 68.582C253.172 68.9336 252.797 69.25 252.422 69.5312C252.047 69.8125 251.754 69.9531 251.543 69.9531H225.316C225.926 69.4375 226.488 68.957 227.004 68.5117C227.449 68.1367 227.883 67.7734 228.305 67.4219C228.727 67.0703 229.008 66.8359 229.148 66.7188C229.312 66.5781 229.559 66.332 229.887 65.9805C230.238 65.6055 230.602 65.2422 230.977 64.8906C231.375 64.5156 231.762 64.1875 232.137 63.9062C232.512 63.625 232.816 63.4844 233.051 63.4844H259.242ZM318.551 75.9297C317.285 77.5234 315.949 79.0352 314.543 80.4648C313.137 81.8711 311.555 83.0898 309.797 84.1211C308.062 85.1523 306.082 85.9492 303.855 86.5117C301.652 87.0742 299.109 87.3086 296.227 87.2148C293.953 87.1445 291.586 87.0273 289.125 86.8633C286.688 86.7227 284.285 86.5703 281.918 86.4062C279.551 86.2422 277.301 86.1016 275.168 85.9844C273.035 85.8672 271.148 85.8086 269.508 85.8086C268.617 85.8086 267.809 85.8203 267.082 85.8438C266.379 85.8906 265.793 85.9727 265.324 86.0898C266.074 85.3164 267 84.2031 268.102 82.75C269.203 81.2734 270.41 79.5977 271.723 77.7227C273.035 75.8242 274.418 73.7852 275.871 71.6055C277.324 69.4258 278.777 67.2344 280.23 65.0312C281.707 62.8281 283.137 60.6836 284.52 58.5977C285.902 56.5117 287.191 54.6133 288.387 52.9023C290.66 49.5977 292.699 46.7734 294.504 44.4297C296.309 42.0625 297.914 40.1055 299.32 38.5586C298.336 38.8633 297.34 39.0859 296.332 39.2266C295.324 39.3438 294.41 39.4258 293.59 39.4727C292.629 39.543 291.703 39.5547 290.812 39.5078C288.258 39.3438 285.75 39.0977 283.289 38.7695C280.828 38.4414 278.473 38.2773 276.223 38.2773C274.324 38.2773 272.543 38.4766 270.879 38.875C269.238 39.2734 267.75 40.0586 266.414 41.2305C267.961 39.3789 269.402 37.7969 270.738 36.4844C272.074 35.1484 273.457 34.0586 274.887 33.2148C276.34 32.3477 277.922 31.7148 279.633 31.3164C281.344 30.918 283.348 30.7188 285.645 30.7188C287.262 30.7188 288.832 30.8125 290.355 31C291.902 31.1641 293.426 31.3633 294.926 31.5977C296.449 31.8086 297.949 32.0078 299.426 32.1953C300.902 32.3594 302.402 32.4414 303.926 32.4414C305.168 32.4414 306.387 32.3828 307.582 32.2656C308.801 32.125 309.961 31.8906 311.062 31.5625C309.82 32.2656 308.648 33.168 307.547 34.2695C306.469 35.3477 305.52 36.4141 304.699 37.4688C303.738 38.6875 302.836 39.9414 301.992 41.2305C301.383 42.2383 300.504 43.6445 299.355 45.4492C298.207 47.2305 296.883 49.2461 295.383 51.4961C293.906 53.7227 292.301 56.1016 290.566 58.6328C288.832 61.1406 287.062 63.6133 285.258 66.0508C283.477 68.4648 281.707 70.75 279.949 72.9062C278.215 75.0625 276.586 76.9141 275.062 78.4609H275.414C277.875 78.4609 280.301 78.543 282.691 78.707C285.105 78.8711 287.496 79.0586 289.863 79.2695C292.23 79.457 294.574 79.6328 296.895 79.7969C299.238 79.9609 301.582 80.043 303.926 80.043C305.754 80.043 307.406 79.9844 308.883 79.8672C310.383 79.7266 311.73 79.5039 312.926 79.1992C314.121 78.8711 315.176 78.4492 316.09 77.9336C317.027 77.3945 317.848 76.7266 318.551 75.9297ZM368.402 79.5859C367.418 80.5703 366.352 81.4727 365.203 82.293C364.078 83.0898 362.941 83.7812 361.793 84.3672C360.645 84.9531 359.531 85.4219 358.453 85.7734C357.375 86.125 356.391 86.3242 355.5 86.3711C355.008 86.418 354.375 86.4062 353.602 86.3359C352.828 86.2891 352.078 86.0898 351.352 85.7383C350.648 85.3867 350.039 84.8359 349.523 84.0859C349.008 83.3359 348.75 82.2695 348.75 80.8867V76.7031C347.461 77.9688 346.102 79.1875 344.672 80.3594C343.242 81.5078 341.766 82.5391 340.242 83.4531C338.742 84.3438 337.219 85.0469 335.672 85.5625C334.125 86.1016 332.602 86.3711 331.102 86.3711C329.18 86.3711 327.492 85.9375 326.039 85.0703C324.586 84.2266 323.367 83.125 322.383 81.7656C321.398 80.4062 320.66 78.8828 320.168 77.1953C319.676 75.5078 319.43 73.832 319.43 72.168C319.43 70.9258 319.523 69.707 319.711 68.5117C319.898 67.293 320.133 66.1445 320.414 65.0664C320.719 63.9883 321.059 63.0156 321.434 62.1484C321.832 61.2812 322.242 60.5664 322.664 60.0039C323.438 58.9492 324.422 57.9297 325.617 56.9453C326.812 55.9609 328.113 55.0352 329.52 54.168C330.949 53.3008 332.461 52.5156 334.055 51.8125C335.648 51.1094 337.23 50.5 338.801 49.9844C340.395 49.4688 341.941 49.0703 343.441 48.7891C344.941 48.5078 346.324 48.3672 347.59 48.3672C348.902 48.3672 350.449 48.4375 352.23 48.5781C354.012 48.6953 356.039 48.9531 358.312 49.3516C358.219 52.0469 358.137 54.4258 358.066 56.4883C357.996 58.5508 357.938 60.4023 357.891 62.043C357.844 63.6602 357.809 65.1367 357.785 66.4727C357.762 67.8086 357.75 69.1094 357.75 70.375C357.75 71.6641 357.727 72.9297 357.68 74.1719C357.633 75.4141 357.727 76.5273 357.961 77.5117C358.195 78.4961 358.652 79.293 359.332 79.9023C360.035 80.5117 361.113 80.8164 362.566 80.8164C363.434 80.8164 364.359 80.7109 365.344 80.5C366.328 80.2656 367.348 79.9609 368.402 79.5859ZM348.82 54.4141C347.414 54.0391 345.914 53.7812 344.32 53.6406C342.727 53.4766 341.203 53.3945 339.75 53.3945C338.953 53.3945 338.191 53.418 337.465 53.4648C336.762 53.5117 336.117 53.5703 335.531 53.6406C334.945 53.7109 334.43 53.8047 333.984 53.9219C333.539 54.0156 333.199 54.1328 332.965 54.2734C332.543 54.4844 332.051 55 331.488 55.8203C330.926 56.6172 330.387 57.6133 329.871 58.8086C329.355 60.0039 328.91 61.3516 328.535 62.8516C328.184 64.3516 328.008 65.8984 328.008 67.4922C328.008 69.0156 328.23 70.5508 328.676 72.0977C329.121 73.6211 329.766 74.9922 330.609 76.2109C331.477 77.4297 332.531 78.4258 333.773 79.1992C335.039 79.9492 336.48 80.3242 338.098 80.3242C339.621 80.3242 340.969 80.0781 342.141 79.5859C343.312 79.0938 344.332 78.4258 345.199 77.582C346.066 76.7148 346.781 75.707 347.344 74.5586C347.93 73.4102 348.398 72.168 348.75 70.832C348.75 69.8477 348.75 68.8047 348.75 67.7031C348.75 66.5781 348.75 65.3477 348.75 64.0117C348.75 62.6758 348.75 61.2227 348.75 59.6523C348.773 58.0586 348.797 56.3125 348.82 54.4141ZM384.398 56.5586C385.5 55.5039 386.695 54.4492 387.984 53.3945C389.297 52.3398 390.621 51.3906 391.957 50.5469C393.316 49.6797 394.676 48.9766 396.035 48.4375C397.395 47.8984 398.672 47.6289 399.867 47.6289C400.688 47.6289 401.484 47.7227 402.258 47.9102C403.055 48.0742 403.828 48.2734 404.578 48.5078C405.352 48.7188 406.113 48.918 406.863 49.1055C407.613 49.2695 408.375 49.3516 409.148 49.3516C409.617 49.3516 410.109 49.3164 410.625 49.2461C411.141 49.1758 411.727 49.0469 412.383 48.8594C410.906 49.9844 409.617 50.957 408.516 51.7773C407.414 52.5977 406.383 53.2773 405.422 53.8164C404.461 54.332 403.5 54.7188 402.539 54.9766C401.602 55.2109 400.547 55.3047 399.375 55.2578C398.227 55.2344 397.137 55.1172 396.105 54.9062C395.098 54.6953 394.172 54.4844 393.328 54.2734C392.508 54.0391 391.781 53.875 391.148 53.7812C390.539 53.6641 390.059 53.6992 389.707 53.8867C388.863 54.3086 388.125 55.082 387.492 56.207C386.859 57.332 386.32 58.668 385.875 60.2148C385.453 61.7617 385.102 63.4375 384.82 65.2422C384.562 67.0469 384.363 68.8516 384.223 70.6562C384.105 72.4609 384.047 74.1836 384.047 75.8242C384.047 77.4414 384.094 78.8477 384.188 80.043C382.43 81.168 380.977 82.1406 379.828 82.9609C378.68 83.7812 377.766 84.4609 377.086 85C376.289 85.6328 375.68 86.1836 375.258 86.6523C375.281 85.2461 375.316 83.5469 375.363 81.5547C375.41 79.5391 375.445 77.4297 375.469 75.2266C375.516 73.0234 375.551 70.8438 375.574 68.6875C375.598 66.5078 375.609 64.5508 375.609 62.8164C375.609 61.7148 375.574 60.6016 375.504 59.4766C375.457 58.3281 375.27 57.2852 374.941 56.3477C374.613 55.4102 374.098 54.6484 373.395 54.0625C372.715 53.4766 371.742 53.1836 370.477 53.1836C369.984 53.1836 369.469 53.2422 368.93 53.3594C368.414 53.4531 367.898 53.6289 367.383 53.8867C368.367 53.2305 369.352 52.5625 370.336 51.8828C371.32 51.2031 372.305 50.5938 373.289 50.0547C374.297 49.4922 375.293 49.0469 376.277 48.7188C377.285 48.3672 378.305 48.1914 379.336 48.1914C380.578 48.1914 381.539 48.4609 382.219 49C382.922 49.5391 383.426 50.2188 383.73 51.0391C384.059 51.8594 384.246 52.7617 384.293 53.7461C384.363 54.7305 384.398 55.668 384.398 56.5586ZM453.973 64.0469C453.973 66.1094 453.574 68.0664 452.777 69.918C451.98 71.7695 450.914 73.4922 449.578 75.0859C448.242 76.6797 446.695 78.1328 444.938 79.4453C443.203 80.7578 441.375 81.8945 439.453 82.8555C437.555 83.8164 435.633 84.5781 433.688 85.1406C431.742 85.7266 429.914 86.0898 428.203 86.2305C427.453 86.2773 426.562 86.2656 425.531 86.1953C424.5 86.125 423.434 85.9375 422.332 85.6328C421.254 85.3516 420.176 84.918 419.098 84.332C418.043 83.7227 417.094 82.9141 416.25 81.9062C415.406 80.8984 414.727 79.6562 414.211 78.1797C413.695 76.6797 413.438 74.8984 413.438 72.8359C413.438 71.2891 413.449 69.4844 413.473 67.4219C413.52 65.3594 413.566 63.1562 413.613 60.8125C413.66 58.4453 413.707 56.0078 413.754 53.5C413.824 50.9688 413.895 48.4727 413.965 46.0117C414.035 43.5508 414.094 41.1836 414.141 38.9102C414.211 36.6133 414.258 34.5273 414.281 32.6523C414.328 30.7773 414.363 29.1602 414.387 27.8008C414.41 26.4414 414.41 25.4688 414.387 24.8828C414.316 24.0391 414.07 23.3242 413.648 22.7383C413.297 22.2461 412.758 21.8594 412.031 21.5781C411.328 21.2734 410.332 21.2969 409.043 21.6484C409.934 21.1797 410.836 20.6992 411.75 20.207C412.664 19.6914 413.59 19.2344 414.527 18.8359C415.465 18.4141 416.402 18.0742 417.34 17.8164C418.277 17.5352 419.227 17.3945 420.188 17.3945C420.68 17.3945 421.148 17.4414 421.594 17.5352C422.062 17.6289 422.461 17.8047 422.789 18.0625C423.141 18.2969 423.422 18.6133 423.633 19.0117C423.844 19.4102 423.949 19.9023 423.949 20.4883C423.949 20.9102 423.938 21.707 423.914 22.8789C423.891 24.0508 423.855 25.5039 423.809 27.2383C423.785 28.9727 423.738 30.918 423.668 33.0742C423.621 35.2305 423.562 37.4922 423.492 39.8594C423.445 42.2031 423.387 44.6055 423.316 47.0664C423.27 49.5039 423.211 51.8711 423.141 54.168C424.383 53.3242 425.637 52.5508 426.902 51.8477C428.168 51.1211 429.457 50.5117 430.77 50.0195C432.105 49.5039 433.453 49.1055 434.812 48.8242C436.195 48.5195 437.613 48.3672 439.066 48.3672C441.41 48.3672 443.508 48.8008 445.359 49.668C447.211 50.5352 448.77 51.6953 450.035 53.1484C451.324 54.6016 452.297 56.2773 452.953 58.1758C453.633 60.0508 453.973 62.0078 453.973 64.0469ZM422.859 70.832C422.859 72.0039 423.211 73.2461 423.914 74.5586C424.641 75.8477 425.602 77.043 426.797 78.1445C427.992 79.2461 429.363 80.1602 430.91 80.8867C432.457 81.6133 434.074 81.9766 435.762 81.9766C437.402 81.9766 438.785 81.5781 439.91 80.7812C441.059 79.9844 441.984 78.9766 442.688 77.7578C443.391 76.5156 443.895 75.1562 444.199 73.6797C444.527 72.2031 444.691 70.7969 444.691 69.4609C444.691 67.3047 444.34 65.2656 443.637 63.3438C442.934 61.3984 441.938 59.6992 440.648 58.2461C439.383 56.7695 437.859 55.6094 436.078 54.7656C434.297 53.8984 432.34 53.4648 430.207 53.4648C429.34 53.4648 428.566 53.5234 427.887 53.6406C427.207 53.7578 426.68 53.9102 426.305 54.0977C425.953 54.2852 425.613 54.6367 425.285 55.1523C424.98 55.668 424.688 56.2891 424.406 57.0156C424.125 57.7422 423.867 58.5508 423.633 59.4414C423.398 60.332 423.188 61.2461 423 62.1836C422.953 64.2461 422.918 66.0508 422.895 67.5977C422.871 69.1445 422.859 70.2227 422.859 70.832ZM512.824 80.1133C509.66 82.2695 506.965 83.8164 504.738 84.7539C502.512 85.6914 500.625 86.1602 499.078 86.1602C498.445 86.1602 497.789 86.0547 497.109 85.8438C496.453 85.6562 495.82 85.3281 495.211 84.8594C494.602 84.3672 494.039 83.7227 493.523 82.9258C493.031 82.1055 492.645 81.0742 492.363 79.832C491.215 80.6758 489.938 81.5078 488.531 82.3281C487.148 83.1484 485.719 83.8867 484.242 84.543C482.766 85.1992 481.277 85.7266 479.777 86.125C478.301 86.5234 476.883 86.7227 475.523 86.7227C473.227 86.7227 471.164 86.2539 469.336 85.3164C467.508 84.4023 465.949 83.1836 464.66 81.6602C463.395 80.1367 462.41 78.4023 461.707 76.457C461.027 74.5117 460.688 72.5078 460.688 70.4453C460.688 68.1484 461.039 66.0977 461.742 64.293C462.469 62.4648 463.441 60.8477 464.66 59.4414C465.902 58.0117 467.332 56.7578 468.949 55.6797C470.566 54.5781 472.289 53.6172 474.117 52.7969C475.945 51.9766 477.82 51.2617 479.742 50.6523C481.664 50.0195 483.527 49.4453 485.332 48.9297C485.496 48.9062 485.695 48.8828 485.93 48.8594C486.117 48.8359 486.34 48.8242 486.598 48.8242C486.879 48.8008 487.195 48.7891 487.547 48.7891C488.203 48.7891 488.941 48.8359 489.762 48.9297C490.605 49 491.496 49.1406 492.434 49.3516L493.172 27.168C493.125 25.8789 492.891 24.7773 492.469 23.8633C492.281 23.4883 492.047 23.1367 491.766 22.8086C491.484 22.457 491.133 22.1875 490.711 22C490.312 21.8125 489.82 21.707 489.234 21.6836C488.672 21.6602 488.016 21.7656 487.266 22C488.18 21.5781 489.152 21.1094 490.184 20.5938C491.215 20.0547 492.234 19.5625 493.242 19.1172C494.273 18.6484 495.27 18.2617 496.23 17.957C497.215 17.6289 498.117 17.4648 498.938 17.4648C499.828 17.4648 500.566 17.6992 501.152 18.168C501.762 18.6367 502.102 19.3633 502.172 20.3477C502.242 21.0039 502.277 21.9062 502.277 23.0547C502.301 24.2031 502.312 25.5742 502.312 27.168C502.312 29.0664 502.289 31.1875 502.242 33.5312C502.219 35.8516 502.184 38.2773 502.137 40.8086C502.09 43.3398 502.031 45.918 501.961 48.543C501.891 51.168 501.832 53.7344 501.785 56.2422C501.738 58.75 501.691 61.1406 501.645 63.4141C501.621 65.6641 501.609 67.6797 501.609 69.4609C501.609 70.8672 501.691 72.25 501.855 73.6094C502.043 74.9688 502.395 76.1875 502.91 77.2656C503.449 78.3438 504.188 79.2227 505.125 79.9023C506.086 80.5586 507.352 80.8867 508.922 80.8867C509.508 80.8867 510.117 80.8281 510.75 80.7109C511.406 80.5938 512.098 80.3945 512.824 80.1133ZM492.223 57.0508C491.402 56.3477 490.523 55.7617 489.586 55.293C488.648 54.8242 487.676 54.4492 486.668 54.168C485.684 53.8633 484.688 53.6523 483.68 53.5352C482.695 53.3945 481.734 53.3242 480.797 53.3242C478.758 53.3242 477.012 53.6289 475.559 54.2383C474.129 54.8477 472.957 55.7148 472.043 56.8398C471.129 57.9648 470.461 59.3125 470.039 60.8828C469.617 62.4531 469.406 64.1992 469.406 66.1211C469.406 68.1836 469.723 70.1406 470.355 71.9922C471.012 73.8203 471.926 75.4375 473.098 76.8438C474.27 78.2266 475.688 79.3281 477.352 80.1484C479.039 80.9453 480.902 81.3438 482.941 81.3438C484.395 81.3438 485.637 81.168 486.668 80.8164C487.699 80.4414 488.555 79.9375 489.234 79.3047C489.938 78.6484 490.5 77.8633 490.922 76.9492C491.344 76.0352 491.684 75.0273 491.941 73.9258C491.941 73.0117 491.941 71.9453 491.941 70.7266C491.965 69.4844 491.988 68.1484 492.012 66.7188C492.059 65.2656 492.094 63.7305 492.117 62.1133C492.141 60.4727 492.176 58.7852 492.223 57.0508ZM558.668 64.5391C558.668 66.4844 558.398 68.2539 557.859 69.8477C557.32 71.4414 556.676 72.8359 555.926 74.0312C555.176 75.2266 554.414 76.2227 553.641 77.0195C552.867 77.8164 552.246 78.3906 551.777 78.7422C550.418 79.7266 549.023 80.6875 547.594 81.625C546.164 82.5625 544.688 83.4062 543.164 84.1562C541.664 84.8828 540.117 85.4688 538.523 85.9141C536.93 86.3594 535.289 86.582 533.602 86.582C531.094 86.582 528.715 86.2656 526.465 85.6328C524.238 85 522.281 84.0508 520.594 82.7852C518.93 81.5195 517.605 79.9258 516.621 78.0039C515.66 76.082 515.18 73.832 515.18 71.2539C515.18 68.9805 515.566 66.8477 516.34 64.8555C517.137 62.8398 518.191 60.9883 519.504 59.3008C520.84 57.6133 522.398 56.1016 524.18 54.7656C525.961 53.4062 527.848 52.2578 529.84 51.3203C531.832 50.3828 533.883 49.668 535.992 49.1758C538.102 48.6836 540.141 48.4375 542.109 48.4375C544.547 48.4375 546.773 48.8477 548.789 49.668C550.828 50.4648 552.574 51.5898 554.027 53.043C555.504 54.4727 556.641 56.1719 557.438 58.1406C558.258 60.1094 558.668 62.2422 558.668 64.5391ZM534.41 52.5156C533.215 52.5156 532.125 52.7383 531.141 53.1836C530.156 53.6055 529.277 54.1914 528.504 54.9414C527.754 55.668 527.098 56.5234 526.535 57.5078C525.996 58.4688 525.539 59.4883 525.164 60.5664C524.812 61.6211 524.543 62.6992 524.355 63.8008C524.191 64.8789 524.109 65.8984 524.109 66.8594C524.109 69.0391 524.508 71.0781 525.305 72.9766C526.102 74.8516 527.191 76.4922 528.574 77.8984C529.98 79.3047 531.609 80.4062 533.461 81.2031C535.336 82 537.328 82.3984 539.438 82.3984C540.75 82.3984 542.016 82.1523 543.234 81.6602C544.477 81.1445 545.566 80.3477 546.504 79.2695C547.465 78.168 548.227 76.7617 548.789 75.0508C549.375 73.3164 549.668 71.2305 549.668 68.793C549.668 66.6602 549.27 64.6094 548.473 62.6406C547.676 60.6719 546.586 58.9375 545.203 57.4375C543.82 55.9375 542.203 54.7422 540.352 53.8516C538.5 52.9609 536.52 52.5156 534.41 52.5156ZM579.516 56.5586C580.617 55.5039 581.812 54.4492 583.102 53.3945C584.414 52.3398 585.738 51.3906 587.074 50.5469C588.434 49.6797 589.793 48.9766 591.152 48.4375C592.512 47.8984 593.789 47.6289 594.984 47.6289C595.805 47.6289 596.602 47.7227 597.375 47.9102C598.172 48.0742 598.945 48.2734 599.695 48.5078C600.469 48.7188 601.23 48.918 601.98 49.1055C602.73 49.2695 603.492 49.3516 604.266 49.3516C604.734 49.3516 605.227 49.3164 605.742 49.2461C606.258 49.1758 606.844 49.0469 607.5 48.8594C606.023 49.9844 604.734 50.957 603.633 51.7773C602.531 52.5977 601.5 53.2773 600.539 53.8164C599.578 54.332 598.617 54.7188 597.656 54.9766C596.719 55.2109 595.664 55.3047 594.492 55.2578C593.344 55.2344 592.254 55.1172 591.223 54.9062C590.215 54.6953 589.289 54.4844 588.445 54.2734C587.625 54.0391 586.898 53.875 586.266 53.7812C585.656 53.6641 585.176 53.6992 584.824 53.8867C583.98 54.3086 583.242 55.082 582.609 56.207C581.977 57.332 581.438 58.668 580.992 60.2148C580.57 61.7617 580.219 63.4375 579.938 65.2422C579.68 67.0469 579.48 68.8516 579.34 70.6562C579.223 72.4609 579.164 74.1836 579.164 75.8242C579.164 77.4414 579.211 78.8477 579.305 80.043C577.547 81.168 576.094 82.1406 574.945 82.9609C573.797 83.7812 572.883 84.4609 572.203 85C571.406 85.6328 570.797 86.1836 570.375 86.6523C570.398 85.2461 570.434 83.5469 570.48 81.5547C570.527 79.5391 570.562 77.4297 570.586 75.2266C570.633 73.0234 570.668 70.8438 570.691 68.6875C570.715 66.5078 570.727 64.5508 570.727 62.8164C570.727 61.7148 570.691 60.6016 570.621 59.4766C570.574 58.3281 570.387 57.2852 570.059 56.3477C569.73 55.4102 569.215 54.6484 568.512 54.0625C567.832 53.4766 566.859 53.1836 565.594 53.1836C565.102 53.1836 564.586 53.2422 564.047 53.3594C563.531 53.4531 563.016 53.6289 562.5 53.8867C563.484 53.2305 564.469 52.5625 565.453 51.8828C566.438 51.2031 567.422 50.5938 568.406 50.0547C569.414 49.4922 570.41 49.0469 571.395 48.7188C572.402 48.3672 573.422 48.1914 574.453 48.1914C575.695 48.1914 576.656 48.4609 577.336 49C578.039 49.5391 578.543 50.2188 578.848 51.0391C579.176 51.8594 579.363 52.7617 579.41 53.7461C579.48 54.7305 579.516 55.668 579.516 56.5586Z" fill="white"/>
</svg>
